<svg width="32" height="35" viewBox="0 0 32 35" fill="none" xmlns="http://www.w3.org/2000/svg">
<path d="M26.6667 35C25.1852 35 23.9259 34.4896 22.8889 33.4688C21.8519 32.4479 21.3333 31.2083 21.3333 29.75C21.3333 29.5458 21.3481 29.3341 21.3778 29.1147C21.4074 28.8954 21.4519 28.6988 21.5111 28.525L8.97778 21.35C8.47407 21.7875 7.91111 22.1305 7.28889 22.379C6.66667 22.6275 6.01481 22.7512 5.33333 22.75C3.85185 22.75 2.59259 22.2396 1.55556 21.2188C0.518519 20.1979 0 18.9583 0 17.5C0 16.0417 0.518519 14.8021 1.55556 13.7812C2.59259 12.7604 3.85185 12.25 5.33333 12.25C6.01481 12.25 6.66667 12.3743 7.28889 12.6228C7.91111 12.8713 8.47407 13.2137 8.97778 13.65L21.5111 6.475C21.4519 6.3 21.4074 6.10342 21.3778 5.88525C21.3481 5.66708 21.3333 5.45533 21.3333 5.25C21.3333 3.79167 21.8519 2.55208 22.8889 1.53125C23.9259 0.510417 25.1852 0 26.6667 0C28.1481 0 29.4074 0.510417 30.4444 1.53125C31.4815 2.55208 32 3.79167 32 5.25C32 6.70833 31.4815 7.94792 30.4444 8.96875C29.4074 9.98958 28.1481 10.5 26.6667 10.5C25.9852 10.5 25.3333 10.3763 24.7111 10.129C24.0889 9.88167 23.5259 9.53867 23.0222 9.1L10.4889 16.275C10.5481 16.45 10.5926 16.6472 10.6222 16.8665C10.6519 17.0858 10.6667 17.297 10.6667 17.5C10.6667 17.7042 10.6519 17.9159 10.6222 18.1353C10.5926 18.3546 10.5481 18.5512 10.4889 18.725L23.0222 25.9C23.5259 25.4625 24.0889 25.1201 24.7111 24.8727C25.3333 24.6254 25.9852 24.5012 26.6667 24.5C28.1481 24.5 29.4074 25.0104 30.4444 26.0312C31.4815 27.0521 32 28.2917 32 29.75C32 31.2083 31.4815 32.4479 30.4444 33.4688C29.4074 34.4896 28.1481 35 26.6667 35ZM26.6667 7C27.1704 7 27.5929 6.832 27.9342 6.496C28.2756 6.16 28.4456 5.74467 28.4444 5.25C28.4444 4.75417 28.2738 4.33825 27.9324 4.00225C27.5911 3.66625 27.1692 3.49883 26.6667 3.5C26.163 3.5 25.7404 3.668 25.3991 4.004C25.0578 4.34 24.8877 4.75533 24.8889 5.25C24.8889 5.74583 25.0596 6.16175 25.4009 6.49775C25.7422 6.83375 26.1641 7.00117 26.6667 7ZM5.33333 19.25C5.83704 19.25 6.25956 19.082 6.60089 18.746C6.94222 18.41 7.1123 17.9947 7.11111 17.5C7.11111 17.0042 6.94044 16.5882 6.59911 16.2522C6.25778 15.9162 5.83585 15.7488 5.33333 15.75C4.82963 15.75 4.40711 15.918 4.06578 16.254C3.72444 16.59 3.55437 17.0053 3.55556 17.5C3.55556 17.9958 3.72622 18.4118 4.06756 18.7478C4.40889 19.0837 4.83081 19.2512 5.33333 19.25ZM26.6667 31.5C27.1704 31.5 27.5929 31.332 27.9342 30.996C28.2756 30.66 28.4456 30.2447 28.4444 29.75C28.4444 29.2542 28.2738 28.8383 27.9324 28.5023C27.5911 28.1663 27.1692 27.9988 26.6667 28C26.163 28 25.7404 28.168 25.3991 28.504C25.0578 28.84 24.8877 29.2553 24.8889 29.75C24.8889 30.2458 25.0596 30.6617 25.4009 30.9977C25.7422 31.3337 26.1641 31.5012 26.6667 31.5Z" fill="black"/>
</svg>
